<svg width="638" height="122" viewBox="0 0 638 122" fill="none" xmlns="http://www.w3.org/2000/svg">
<circle cx="61" cy="61" r="61" fill="url(#paint0_linear_237_28)"/>
<g clip-path="url(#clip0_237_28)">
<path d="M60.9998 36.2514C59.0694 36.2514 57.1824 35.679 55.5774 34.6066C53.9724 33.5342 52.7214 32.0098 51.9827 30.2264C51.244 28.443 51.0507 26.4806 51.4273 24.5874C51.8039 22.6941 52.7334 20.955 54.0984 19.5901C55.4634 18.2251 57.2024 17.2956 59.0957 16.919C60.9889 16.5424 62.9513 16.7357 64.7347 17.4744C66.5181 18.2131 68.0424 19.4641 69.1149 21.0691C70.1873 22.6741 70.7598 24.5611 70.7598 26.4914C70.757 29.0791 69.7278 31.56 67.8981 33.3898C66.0683 35.2195 63.5874 36.2487 60.9998 36.2514Z" fill="white"/>
<path d="M91.6742 36.3911L91.5958 36.412L91.5226 36.4347C91.3483 36.4835 91.174 36.5358 90.9997 36.5898C87.7563 37.5414 72.0148 41.9787 60.925 41.9787C50.6195 41.9787 36.3019 38.1444 31.7217 36.8425C31.2658 36.6663 30.8003 36.5161 30.3274 36.3929C27.016 35.5214 24.7502 38.8852 24.7502 41.9596C24.7502 45.0043 27.4865 46.4544 30.249 47.4949V47.5437L46.8444 52.7269C48.5402 53.377 48.9934 54.0411 49.2147 54.6162C49.9345 56.4619 49.3594 60.1167 49.1555 61.3924L48.1446 69.2353L42.5344 99.9427C42.5169 100.026 42.5012 100.112 42.4873 100.199L42.4472 100.42C42.0429 103.235 44.1099 105.966 48.0244 105.966C51.4404 105.966 52.9479 103.608 53.6015 100.399C53.6015 100.399 58.4815 72.9371 60.9215 72.9371C63.3615 72.9371 68.3879 100.399 68.3879 100.399C69.0415 103.608 70.549 105.966 73.965 105.966C77.89 105.966 79.957 103.223 79.5422 100.399C79.5056 100.159 79.462 99.9218 79.4097 99.6917L73.7228 69.2388L72.7137 61.3959C71.9834 56.8279 72.5708 55.3186 72.7694 54.9648C72.7748 54.9564 72.7794 54.9477 72.7834 54.9386C72.9716 54.5901 73.8291 53.8092 75.8299 53.0581L91.3901 47.6186C91.4857 47.5932 91.5799 47.5629 91.6725 47.528C94.461 46.4823 97.2496 45.0357 97.2496 41.9631C97.2496 38.8904 94.9856 35.5215 91.6742 36.3911Z" fill="white"/>
</g>
<path d="M573.283 46.5645C577.034 46.5645 580.475 47.1638 583.607 48.3625C586.778 49.5611 589.504 51.3205 591.785 53.6405C594.067 55.9218 595.845 58.7445 597.121 62.1085C598.397 65.4338 599.035 69.2425 599.035 73.5345C599.035 74.6171 598.977 75.5258 598.861 76.2605C598.784 76.9565 598.61 77.5171 598.339 77.9425C598.107 78.3291 597.779 78.6191 597.353 78.8125C596.928 78.9671 596.387 79.0445 595.729 79.0445H558.957C559.383 85.1538 561.026 89.6391 563.887 92.5005C566.749 95.3618 570.538 96.7925 575.255 96.7925C577.575 96.7925 579.567 96.5218 581.229 95.9805C582.931 95.4391 584.4 94.8398 585.637 94.1825C586.913 93.5251 588.015 92.9258 588.943 92.3845C589.91 91.8431 590.838 91.5725 591.727 91.5725C592.307 91.5725 592.81 91.6885 593.235 91.9205C593.661 92.1525 594.028 92.4811 594.337 92.9065L598.513 98.1265C596.928 99.9825 595.149 101.548 593.177 102.824C591.205 104.062 589.137 105.067 586.971 105.84C584.845 106.575 582.66 107.097 580.417 107.406C578.213 107.716 576.067 107.87 573.979 107.87C569.842 107.87 565.995 107.194 562.437 105.84C558.88 104.448 555.787 102.418 553.157 99.7505C550.528 97.0438 548.459 93.7185 546.951 89.7745C545.443 85.7918 544.689 81.1905 544.689 75.9705C544.689 71.9105 545.347 68.1018 546.661 64.5445C547.976 60.9485 549.851 57.8358 552.287 55.2065C554.762 52.5385 557.759 50.4311 561.277 48.8845C564.835 47.3378 568.837 46.5645 573.283 46.5645ZM573.573 56.8305C569.397 56.8305 566.13 58.0098 563.771 60.3685C561.413 62.7271 559.905 66.0718 559.247 70.4025H586.159C586.159 68.5465 585.908 66.8065 585.405 65.1825C584.903 63.5198 584.129 62.0698 583.085 60.8325C582.041 59.5951 580.727 58.6285 579.141 57.9325C577.556 57.1978 575.7 56.8305 573.573 56.8305Z" fill="#353535"/>
<path d="M518.577 107H505.585L481.921 47.4922H493.811C494.855 47.4922 495.725 47.7435 496.421 48.2462C497.156 48.7489 497.659 49.3869 497.929 50.1602L509.413 81.9442C510.071 83.8002 510.612 85.6175 511.037 87.3962C511.501 89.1749 511.907 90.9535 512.255 92.7322C512.603 90.9535 512.99 89.1749 513.415 87.3962C513.879 85.6175 514.459 83.8002 515.155 81.9442L526.929 50.1602C527.2 49.3869 527.683 48.7489 528.379 48.2462C529.075 47.7435 529.907 47.4922 530.873 47.4922H542.183L518.577 107Z" fill="#353535"/>
<path d="M472.527 47.4923V107H458.201V47.4923H472.527ZM474.673 30.1503C474.673 31.3877 474.422 32.5477 473.919 33.6303C473.417 34.713 472.74 35.6603 471.889 36.4723C471.077 37.2843 470.111 37.9417 468.989 38.4443C467.868 38.9083 466.669 39.1403 465.393 39.1403C464.156 39.1403 462.977 38.9083 461.855 38.4443C460.773 37.9417 459.825 37.2843 459.013 36.4723C458.201 35.6603 457.544 34.713 457.041 33.6303C456.577 32.5477 456.345 31.3877 456.345 30.1503C456.345 28.8743 456.577 27.6757 457.041 26.5543C457.544 25.433 458.201 24.4663 459.013 23.6543C459.825 22.8423 460.773 22.2043 461.855 21.7403C462.977 21.2377 464.156 20.9863 465.393 20.9863C466.669 20.9863 467.868 21.2377 468.989 21.7403C470.111 22.2043 471.077 22.8423 471.889 23.6543C472.74 24.4663 473.417 25.433 473.919 26.5543C474.422 27.6757 474.673 28.8743 474.673 30.1503Z" fill="#353535"/>
<path d="M431.96 107.928C426.817 107.928 422.854 106.478 420.07 103.578C417.286 100.64 415.894 96.5989 415.894 91.4563V58.2223H409.862C409.089 58.2223 408.412 57.9709 407.832 57.4683C407.291 56.9656 407.02 56.2116 407.02 55.2063V49.5223L416.59 47.9563L419.606 31.7163C419.761 30.9429 420.109 30.3436 420.65 29.9183C421.23 29.4929 421.945 29.2803 422.796 29.2803H430.22V48.0143H445.88V58.2223H430.22V90.4703C430.22 92.3263 430.684 93.7763 431.612 94.8203C432.54 95.8643 433.777 96.3863 435.324 96.3863C436.213 96.3863 436.948 96.2896 437.528 96.0963C438.147 95.8643 438.669 95.6323 439.094 95.4003C439.558 95.1683 439.964 94.9556 440.312 94.7623C440.66 94.5303 441.008 94.4143 441.356 94.4143C441.781 94.4143 442.129 94.5303 442.4 94.7623C442.671 94.9556 442.961 95.2649 443.27 95.6903L447.562 102.65C445.474 104.39 443.077 105.705 440.37 106.594C437.663 107.484 434.86 107.928 431.96 107.928Z" fill="#353535"/>
<path d="M397.099 59.0925C396.712 59.7111 396.306 60.1558 395.881 60.4265C395.456 60.6585 394.914 60.7745 394.257 60.7745C393.561 60.7745 392.807 60.5811 391.995 60.1945C391.222 59.8078 390.313 59.3825 389.269 58.9185C388.225 58.4158 387.026 57.9711 385.673 57.5845C384.358 57.1978 382.792 57.0045 380.975 57.0045C378.152 57.0045 375.929 57.6038 374.305 58.8025C372.681 60.0011 371.869 61.5671 371.869 63.5005C371.869 64.7765 372.275 65.8591 373.087 66.7485C373.938 67.5991 375.04 68.3531 376.393 69.0105C377.785 69.6678 379.351 70.2671 381.091 70.8085C382.831 71.3111 384.61 71.8718 386.427 72.4905C388.244 73.1091 390.023 73.8245 391.763 74.6365C393.503 75.4098 395.05 76.4151 396.403 77.6525C397.795 78.8511 398.897 80.3011 399.709 82.0025C400.56 83.7038 400.985 85.7531 400.985 88.1505C400.985 91.0118 400.463 93.6605 399.419 96.0965C398.375 98.4938 396.848 100.582 394.837 102.36C392.826 104.1 390.332 105.473 387.355 106.478C384.416 107.445 381.033 107.928 377.205 107.928C375.156 107.928 373.145 107.735 371.173 107.348C369.24 107 367.364 106.498 365.547 105.84C363.768 105.183 362.106 104.41 360.559 103.52C359.051 102.631 357.717 101.664 356.557 100.62L359.863 95.1685C360.288 94.5111 360.791 94.0085 361.371 93.6605C361.951 93.3125 362.686 93.1385 363.575 93.1385C364.464 93.1385 365.296 93.3898 366.069 93.8925C366.881 94.3951 367.809 94.9365 368.853 95.5165C369.897 96.0965 371.115 96.6378 372.507 97.1405C373.938 97.6431 375.736 97.8945 377.901 97.8945C379.602 97.8945 381.052 97.7011 382.251 97.3145C383.488 96.8891 384.494 96.3478 385.267 95.6905C386.079 95.0331 386.659 94.2791 387.007 93.4285C387.394 92.5391 387.587 91.6305 387.587 90.7025C387.587 89.3105 387.162 88.1698 386.311 87.2805C385.499 86.3911 384.397 85.6178 383.005 84.9605C381.652 84.3031 380.086 83.7231 378.307 83.2205C376.567 82.6791 374.769 82.0991 372.913 81.4805C371.096 80.8618 369.298 80.1465 367.519 79.3345C365.779 78.4838 364.213 77.4205 362.821 76.1445C361.468 74.8685 360.366 73.3025 359.515 71.4465C358.703 69.5905 358.297 67.3478 358.297 64.7185C358.297 62.2825 358.78 59.9625 359.747 57.7585C360.714 55.5545 362.125 53.6405 363.981 52.0165C365.876 50.3538 368.215 49.0391 370.999 48.0725C373.822 47.0671 377.07 46.5645 380.743 46.5645C384.842 46.5645 388.573 47.2411 391.937 48.5945C395.301 49.9478 398.104 51.7265 400.347 53.9305L397.099 59.0925Z" fill="#353535"/>
<path d="M345.539 47.4923V107H331.213V47.4923H345.539ZM347.685 30.1503C347.685 31.3877 347.434 32.5477 346.931 33.6303C346.428 34.713 345.752 35.6603 344.901 36.4723C344.089 37.2843 343.122 37.9417 342.001 38.4443C340.88 38.9083 339.681 39.1403 338.405 39.1403C337.168 39.1403 335.988 38.9083 334.867 38.4443C333.784 37.9417 332.837 37.2843 332.025 36.4723C331.213 35.6603 330.556 34.713 330.053 33.6303C329.589 32.5477 329.357 31.3877 329.357 30.1503C329.357 28.8743 329.589 27.6757 330.053 26.5543C330.556 25.433 331.213 24.4663 332.025 23.6543C332.837 22.8423 333.784 22.2043 334.867 21.7403C335.988 21.2377 337.168 20.9863 338.405 20.9863C339.681 20.9863 340.88 21.2377 342.001 21.7403C343.122 22.2043 344.089 22.8423 344.901 23.6543C345.752 24.4663 346.428 25.433 346.931 26.5543C347.434 27.6757 347.685 28.8743 347.685 30.1503Z" fill="#353535"/>
<path d="M314.97 59.0925C314.584 59.7111 314.178 60.1558 313.752 60.4265C313.327 60.6585 312.786 60.7745 312.128 60.7745C311.432 60.7745 310.678 60.5811 309.866 60.1945C309.093 59.8078 308.184 59.3825 307.14 58.9185C306.096 58.4158 304.898 57.9711 303.544 57.5845C302.23 57.1978 300.664 57.0045 298.846 57.0045C296.024 57.0045 293.8 57.6038 292.176 58.8025C290.552 60.0011 289.74 61.5671 289.74 63.5005C289.74 64.7765 290.146 65.8591 290.958 66.7485C291.809 67.5991 292.911 68.3531 294.264 69.0105C295.656 69.6678 297.222 70.2671 298.962 70.8085C300.702 71.3111 302.481 71.8718 304.298 72.4905C306.116 73.1091 307.894 73.8245 309.634 74.6365C311.374 75.4098 312.921 76.4151 314.274 77.6525C315.666 78.8511 316.768 80.3011 317.58 82.0025C318.431 83.7038 318.856 85.7531 318.856 88.1505C318.856 91.0118 318.334 93.6605 317.29 96.0965C316.246 98.4938 314.719 100.582 312.708 102.36C310.698 104.1 308.204 105.473 305.226 106.478C302.288 107.445 298.904 107.928 295.076 107.928C293.027 107.928 291.016 107.735 289.044 107.348C287.111 107 285.236 106.498 283.418 105.84C281.64 105.183 279.977 104.41 278.43 103.52C276.922 102.631 275.588 101.664 274.428 100.62L277.734 95.1685C278.16 94.5111 278.662 94.0085 279.242 93.6605C279.822 93.3125 280.557 93.1385 281.446 93.1385C282.336 93.1385 283.167 93.3898 283.94 93.8925C284.752 94.3951 285.68 94.9365 286.724 95.5165C287.768 96.0965 288.986 96.6378 290.378 97.1405C291.809 97.6431 293.607 97.8945 295.772 97.8945C297.474 97.8945 298.924 97.7011 300.122 97.3145C301.36 96.8891 302.365 96.3478 303.138 95.6905C303.95 95.0331 304.53 94.2791 304.878 93.4285C305.265 92.5391 305.458 91.6305 305.458 90.7025C305.458 89.3105 305.033 88.1698 304.182 87.2805C303.37 86.3911 302.268 85.6178 300.876 84.9605C299.523 84.3031 297.957 83.7231 296.178 83.2205C294.438 82.6791 292.64 82.0991 290.784 81.4805C288.967 80.8618 287.169 80.1465 285.39 79.3345C283.65 78.4838 282.084 77.4205 280.692 76.1445C279.339 74.8685 278.237 73.3025 277.386 71.4465C276.574 69.5905 276.168 67.3478 276.168 64.7185C276.168 62.2825 276.652 59.9625 277.618 57.7585C278.585 55.5545 279.996 53.6405 281.852 52.0165C283.747 50.3538 286.086 49.0391 288.87 48.0725C291.693 47.0671 294.941 46.5645 298.614 46.5645C302.713 46.5645 306.444 47.2411 309.808 48.5945C313.172 49.9478 315.976 51.7265 318.218 53.9305L314.97 59.0925Z" fill="#353535"/>
<path d="M264.334 59.0925C263.947 59.7111 263.541 60.1558 263.116 60.4265C262.69 60.6585 262.149 60.7745 261.492 60.7745C260.796 60.7745 260.042 60.5811 259.23 60.1945C258.456 59.8078 257.548 59.3825 256.504 58.9185C255.46 58.4158 254.261 57.9711 252.908 57.5845C251.593 57.1978 250.027 57.0045 248.21 57.0045C245.387 57.0045 243.164 57.6038 241.54 58.8025C239.916 60.0011 239.104 61.5671 239.104 63.5005C239.104 64.7765 239.51 65.8591 240.322 66.7485C241.172 67.5991 242.274 68.3531 243.628 69.0105C245.02 69.6678 246.586 70.2671 248.326 70.8085C250.066 71.3111 251.844 71.8718 253.662 72.4905C255.479 73.1091 257.258 73.8245 258.998 74.6365C260.738 75.4098 262.284 76.4151 263.638 77.6525C265.03 78.8511 266.132 80.3011 266.944 82.0025C267.794 83.7038 268.22 85.7531 268.22 88.1505C268.22 91.0118 267.698 93.6605 266.654 96.0965C265.61 98.4938 264.082 100.582 262.072 102.36C260.061 104.1 257.567 105.473 254.59 106.478C251.651 107.445 248.268 107.928 244.44 107.928C242.39 107.928 240.38 107.735 238.408 107.348C236.474 107 234.599 106.498 232.782 105.84C231.003 105.183 229.34 104.41 227.794 103.52C226.286 102.631 224.952 101.664 223.792 100.62L227.098 95.1685C227.523 94.5111 228.026 94.0085 228.606 93.6605C229.186 93.3125 229.92 93.1385 230.81 93.1385C231.699 93.1385 232.53 93.3898 233.304 93.8925C234.116 94.3951 235.044 94.9365 236.088 95.5165C237.132 96.0965 238.35 96.6378 239.742 97.1405C241.172 97.6431 242.97 97.8945 245.136 97.8945C246.837 97.8945 248.287 97.7011 249.486 97.3145C250.723 96.8891 251.728 96.3478 252.502 95.6905C253.314 95.0331 253.894 94.2791 254.242 93.4285C254.628 92.5391 254.822 91.6305 254.822 90.7025C254.822 89.3105 254.396 88.1698 253.546 87.2805C252.734 86.3911 251.632 85.6178 250.24 84.9605C248.886 84.3031 247.32 83.7231 245.542 83.2205C243.802 82.6791 242.004 82.0991 240.148 81.4805C238.33 80.8618 236.532 80.1465 234.754 79.3345C233.014 78.4838 231.448 77.4205 230.056 76.1445C228.702 74.8685 227.6 73.3025 226.75 71.4465C225.938 69.5905 225.532 67.3478 225.532 64.7185C225.532 62.2825 226.015 59.9625 226.982 57.7585C227.948 55.5545 229.36 53.6405 231.216 52.0165C233.11 50.3538 235.45 49.0391 238.234 48.0725C241.056 47.0671 244.304 46.5645 247.978 46.5645C252.076 46.5645 255.808 47.2411 259.172 48.5945C262.536 49.9478 265.339 51.7265 267.582 53.9305L264.334 59.0925Z" fill="#353535"/>
<path d="M221.186 107.001H209.122C207.769 107.001 206.647 106.672 205.758 106.015C204.907 105.319 204.289 104.468 203.902 103.463L197.638 86.3528H162.896L156.632 103.463C156.323 104.352 155.704 105.164 154.776 105.899C153.887 106.633 152.785 107.001 151.47 107.001H139.348L172.292 23.1328H188.242L221.186 107.001ZM166.898 75.3328H193.636L183.428 47.4348C182.964 46.1975 182.442 44.7475 181.862 43.0848C181.321 41.3835 180.779 39.5468 180.238 37.5748C179.697 39.5468 179.155 41.3835 178.614 43.0848C178.111 44.7861 177.609 46.2748 177.106 47.5508L166.898 75.3328Z" fill="#353535"/>
<path d="M618.072 8V28.398H638V37.5025H618.072V58H607.826V37.5025H588V28.398H607.826V8H618.072Z" fill="url(#paint1_linear_237_28)"/>
<defs>
<linearGradient id="paint0_linear_237_28" x1="-18.5" y1="-18.5" x2="122" y2="122" gradientUnits="userSpaceOnUse">
<stop stop-color="#449FD4"/>
<stop offset="0.55" stop-color="#449FD4"/>
<stop offset="0.55" stop-color="#206F9D"/>
<stop offset="1" stop-color="#206F9D"/>
</linearGradient>
<linearGradient id="paint1_linear_237_28" x1="580.418" y1="0.418034" x2="638" y2="58" gradientUnits="userSpaceOnUse">
<stop stop-color="#449FD4"/>
<stop offset="0.55" stop-color="#449FD4"/>
<stop offset="0.55" stop-color="#206F9D"/>
<stop offset="1" stop-color="#206F9D"/>
</linearGradient>
<clipPath id="clip0_237_28">
<rect width="89.2343" height="89.2343" fill="white" transform="translate(16.3828 16.7314)"/>
</clipPath>
</defs>
</svg>
